<?xml version="1.0" standalone="no"?>
<!DOCTYPE svg PUBLIC "-//W3C//DTD SVG 20010904//EN"
 "http://www.w3.org/TR/2001/REC-SVG-20010904/DTD/svg10.dtd">
<svg version="1.0" xmlns="../external.html?link=http://www.w3.org/2000/svg"
 width="700.000000pt" height="700.000000pt" viewBox="0 0 700.000000 700.000000"
 preserveAspectRatio="xMidYMid meet">
<metadata>
Created by potrace 1.11, written by Peter Selinger 2001-2013
</metadata>
<g transform="translate(0.000000,700.000000) scale(0.100000,-0.100000)"
fill="#000000" stroke="none">
<path d="M0 3495 l0 -3495 3500 0 3500 0 0 3495 0 3495 -3500 0 -3500 0 0
-3495z m2838 2538 l2 -303 -82 0 c-242 -1 -394 -73 -454 -216 -48 -112 -47
-98 -54 -884 -6 -711 -7 -748 -27 -812 -42 -138 -118 -228 -249 -293 l-67 -32
59 -27 c136 -62 208 -145 253 -290 l25 -81 6 -745 c6 -623 9 -753 22 -795 64
-210 202 -295 481 -295 l87 0 0 -306 0 -306 -262 5 c-327 6 -452 29 -623 114
-238 119 -369 291 -437 571 -20 83 -22 120 -28 862 -4 532 -9 785 -17 807 -28
79 -81 132 -154 153 -19 6 -93 10 -166 10 l-132 0 -3 319 -3 319 141 4 c129 4
146 6 197 32 61 29 88 60 114 128 15 38 18 125 23 823 4 429 9 789 13 800 3
11 15 56 26 100 78 316 303 524 652 604 130 30 233 39 459 37 l195 -1 3 -302z
m1807 297 c424 -40 704 -228 819 -550 60 -166 58 -140 66 -985 4 -554 10 -790
18 -814 23 -68 61 -112 120 -139 50 -23 73 -26 195 -30 l137 -5 0 -317 0 -318
-152 -4 c-167 -4 -188 -9 -246 -69 -68 -70 -66 -40 -72 -904 -4 -429 -9 -789
-13 -800 -3 -11 -15 -56 -26 -100 -82 -330 -322 -541 -707 -621 -56 -12 -153
-18 -336 -21 l-258 -5 0 306 0 306 83 0 c270 0 416 88 473 285 16 54 18 139
24 800 6 639 9 748 23 801 40 153 115 247 245 311 l74 37 -57 28 c-112 54
-190 130 -229 223 -49 115 -49 116 -56 900 -6 723 -6 741 -28 805 -63 190
-179 265 -428 277 l-124 6 0 304 0 303 173 0 c94 0 222 -5 282 -10z"/>
</g>
</svg>
