<svg xmlns="http://www.w3.org/2000/svg" viewBox="0 0 90 90">
  <style>
    .st0{fill:#00aeef}.st1{fill:none;stroke:#00aeef;stroke-miterlimit:10}.st3{display:inline}
  </style>
  <path class="st0" d="M45 1.5C69 1.5 88.5 21 88.5 45S69 88.5 45 88.5 1.5 69 1.5 45 21 1.5 45 1.5M45 0C20.1 0 0 20.1 0 45s20.1 45 45 45 45-20.1 45-45S69.9 0 45 0z"/>
  <path class="st1" d="M66.4 45.2c-2.7.6-3.1 2.7-3.1 5.1v10.5c0 5.6-3.3 8.2-9 7.4M54.3 22.1c5.5-.9 8.9 1.6 9 7.1.1 3.6 0 7.2 0 10.8 0 2.4.1 4.6 3.1 5.1"/>
  <g>
    <path class="st1" d="M23.5 45.2c2.7.6 3.1 2.7 3.1 5.1v10.5c0 5.6 3.3 8.2 9 7.4M35.7 22.1c-5.6-.9-8.9 1.6-9 7.1-.1 3.6 0 7.2 0 10.8 0 2.4-.1 4.6-3.1 5.1"/>
  </g>
</svg>
