<svg id="Layer_1" xmlns="http://www.w3.org/2000/svg" viewBox="0 0 90 90">
  <style>
    .st0{fill:#00aeef}.st2{display:inline}.st3{fill:none;stroke:#00aeef;stroke-miterlimit:10}
  </style>
  <path class="st0" d="M44.9 1.5c24 0 43.5 19.5 43.5 43.5S68.9 88.5 44.9 88.5 1.4 69 1.4 45 20.9 1.5 44.9 1.5m0-1.5C20 0-.1 20.1-.1 45s20.1 45 45 45 45-20.1 45-45-20.1-45-45-45z"/>
  <path class="st0" d="M53.8 27.8c0-.1 0-.3-.1-.4l-8-12.6s0-.2-.1-.2c-.3-.3-.9-.3-1.2 0 0 0 0 .2-.1.2l-8.1 12.8c-.1.1-.1.3-.1.4v41.6c0 .1.1.4.3.6.1.2.3.3.6.3h16c.1 0 .4-.2.6-.3.1-.1.3-.3.3-.6l-.1-41.8zm-8.9-11.1l7 11.1-3.6 3.4-2.9-2.9c-.3-.3-.9-.3-1.2 0l-2.8 2.9-3.6-3.6 7.1-10.9zm7.2 51.9H37.6v-7h14.5v7zm0-8.6H37.6V29.9l3.1 3.3c.3.3.9.3 1.2 0l2.9-2.9 2.9 2.9c.3.3.9.3 1.2 0l3.3-3.1V60z" id="_x38_30-pencil_x40_2x.png_7_"/>
</svg>
