<svg id="Layer_1" xmlns="http://www.w3.org/2000/svg" viewBox="0 0 90 90">
  <style>
    .st0{fill:#00aeef}.st1{fill:none;stroke:#00aeef;stroke-miterlimit:10}.st3{display:inline}
  </style>
  <path class="st0" d="M44.9 1.5c24 0 43.5 19.5 43.5 43.5S68.9 88.5 44.9 88.5 1.4 69 1.4 45 20.9 1.5 44.9 1.5m0-1.5C20 0-.1 20.1-.1 45s20.1 45 45 45 45-20.1 45-45c0-24.8-20.1-45-45-45z"/>
  <path class="st0" d="M62.8 27.4h-.6V26c0-1.1-.9-1.9-1.9-1.9-1.1 0-2 .9-2 1.9v1.4H31.7V26c0-1.1-.9-1.9-1.9-1.9s-1.9.9-1.9 1.9v1.4h-.6c-1.8 0-3.3 1.5-3.3 3.3V60c0 1.8 1.5 3.3 3.3 3.3h7.4c.3 0 .6-.3.6-.6s-.3-.6-.6-.6h-7.4c-1.1 0-1.9-.9-1.9-2V34.8H57c.3 0 .6-.3.6-.6s-.3-.6-.6-.6H25v-2.7c0-1.1.9-1.9 1.9-1.9h.6v1.4c0 1.1.9 1.9 1.9 1.9s1.9-.9 1.9-1.9V29H58v1.4c0 1.1.9 1.9 1.9 1.9 1.1 0 2-.9 2-1.9V29h.6c1 0 1.9.9 1.9 1.9v2.7H63c-.3 0-.6.3-.6.6s.3.6.6.6h1.4V60c0 1.1-.9 1.9-1.9 1.9h-7.4c-.3 0-.6.3-.6.6s.3.6.6.6h7.4c1.8 0 3.3-1.5 3.3-3.3v-29c.3-1.9-1.1-3.4-3-3.4zm-32.4 2.7c0 .3-.3.6-.6.6s-.6-.3-.6-.6V26c0-.3.3-.6.6-.6s.6.3.6.6v4.1zm29.8.7c-.3 0-.6-.3-.6-.6v-4.1c0-.3.3-.6.6-.6s.6.3.6.6V30c0 .4-.3.8-.6.8z"/>
  <path class="st0" d="M60.8 34.8c.3 0 .6-.3.6-.6s-.3-.6-.6-.6h-1.4c-.3 0-.6.3-.6.6s.3.6.6.6h1.4zM44.3 40.6h1.4c.3 0 .6-.3.6-.6s-.3-.6-.6-.6h-1.4c-.3 0-.6.3-.6.6-.1.4.2.6.6.6zM44.3 43.9h1.4c.3 0 .6-.3.6-.6s-.3-.6-.6-.6h-1.4c-.3 0-.6.3-.6.6-.1.3.2.6.6.6zM49 40.6h1.4c.3 0 .6-.3.6-.6s-.3-.6-.6-.6H49c-.3 0-.6.3-.6.6-.2.4.1.6.6.6zM49 43.9h1.4c.3 0 .6-.3.6-.6s-.3-.6-.6-.6H49c-.3 0-.6.3-.6.6-.2.3.1.6.6.6zM39.7 40.6H41c.3 0 .6-.3.6-.6s-.3-.6-.6-.6h-1.4c-.3 0-.6.3-.6.6-.1.4.2.6.7.6zM39.7 43.9H41c.3 0 .6-.3.6-.6s-.3-.6-.6-.6h-1.4c-.3 0-.6.3-.6.6-.1.3.2.6.7.6zM35 40.6h1.4c.3 0 .6-.3.6-.6s-.3-.6-.6-.6H35c-.3 0-.6.3-.6.6-.1.4.2.6.6.6zM35 43.9h1.4c.3 0 .6-.3.6-.6s-.3-.6-.6-.6H35c-.3 0-.6.3-.6.6-.1.3.2.6.6.6zM35 47.4h1.4c.3 0 .6-.3.6-.6s-.3-.6-.6-.6H35c-.3 0-.6.3-.6.6-.1.3.2.6.6.6zM34.6 50.4c.1.1.3.1.5.1s.3 0 .4-.1.1-.3.1-.5c0-.1 0-.3-.1-.4s-.3-.1-.4-.1-.3 0-.5.1-.1.3-.1.4c-.2.2-.1.5.1.5zM53.5 40.6h1.4c.3 0 .6-.3.6-.6s-.3-.6-.6-.6h-1.4c-.3 0-.6.3-.6.6 0 .4.3.6.6.6zM53.5 43.9h1.4c.3 0 .6-.3.6-.6s-.3-.6-.6-.6h-1.4c-.3 0-.6.3-.6.6s.3.6.6.6zM53.5 47.4h1.4c.3 0 .6-.3.6-.6s-.3-.6-.6-.6h-1.4c-.3 0-.6.3-.6.6s.3.6.6.6zM54.4 49.5c-.1.1-.1.3-.1.4 0 .2 0 .3.1.5s.3.1.4.1.3 0 .5-.1.1-.3.1-.5c0-.1 0-.3-.1-.4s-.3-.1-.5-.1-.3 0-.4.1zM57.5 40.1c0 .3.3.6.6.6h1.4c.3 0 .6-.3.6-.6s-.3-.6-.6-.6h-1.4c-.3-.2-.6.1-.6.6zM58.1 43.9h1.4c.3 0 .6-.3.6-.6s-.3-.6-.6-.6h-1.4c-.3 0-.6.3-.6.6s.3.6.6.6zM58.1 47.4h1.4c.3 0 .6-.3.6-.6s-.3-.6-.6-.6h-1.4c-.3 0-.6.3-.6.6s.3.6.6.6zM58.1 50.7h1.4c.3 0 .6-.3.6-.6s-.3-.6-.6-.6h-1.4c-.3 0-.6.3-.6.6s.3.6.6.6zM58.1 54h1.4c.3 0 .6-.3.6-.6s-.3-.6-.6-.6h-1.4c-.3 0-.6.3-.6.6s.3.6.6.6zM58.1 57.3h1.4c.3 0 .6-.3.6-.6s-.3-.6-.6-.6h-1.4c-.3 0-.6.3-.6.6s.3.6.6.6zM31.7 39.3h-1.4c-.3 0-.6.3-.6.6s.3.6.6.6h1.4c.3 0 .6-.3.6-.6s-.3-.6-.6-.6zM31.7 42.8h-1.4c-.3 0-.6.3-.6.6s.3.6.6.6h1.4c.3 0 .6-.3.6-.6s-.3-.6-.6-.6zM31.7 46.1h-1.4c-.3 0-.6.3-.6.6s.3.6.6.6h1.4c.3 0 .6-.3.6-.6s-.3-.6-.6-.6zM31.7 49.4h-1.4c-.3 0-.6.3-.6.6s.3.6.6.6h1.4c.3 0 .6-.3.6-.6 0-.4-.3-.6-.6-.6zM31.7 52.6h-1.4c-.3 0-.6.3-.6.6s.3.6.6.6h1.4c.3 0 .6-.3.6-.6s-.3-.6-.6-.6zM31.7 55.9h-1.4c-.3 0-.6.3-.6.6s.3.6.6.6h1.4c.3 0 .6-.3.6-.6s-.3-.6-.6-.6z"/>
  <circle class="st1" cx="44.9" cy="56.6" r="9.3"/>
  <path class="st0" d="M49.6 53.4c-.4-.5-1-.5-1.4 0L44 57.6l-2.2-2.2c-.5-.5-1.1-.5-1.4 0-.5.4-.5 1 0 1.3l3 3c0 .3.3.3.6.3s.5-.1.8-.3l5-4.9c.1-.4.1-.9-.2-1.4z"/>
</svg>
