<svg id="Layer_1" xmlns="http://www.w3.org/2000/svg" viewBox="0 0 90 90">
  <style>
    .st0{fill:#00aeef}.st2{display:inline}.st3{fill:none;stroke:#00aeef;stroke-miterlimit:10}
  </style>
  <path class="st0" d="M45 1.5c23.9 0 43.5 19.6 43.5 43.5S68.9 88.5 45 88.5 1.5 68.9 1.5 45 21.1 1.5 45 1.5M45 0C20.2 0 0 20.2 0 45s20.2 45 45 45 45-20.2 45-45S69.8 0 45 0z"/>
  <path class="st0" d="M29.5 42c1.6 0 3 1.3 3 3s-1.3 3-3 3-3-1.3-3-3 1.3-3 3-3m0-1.5C27 40.5 25 42.4 25 45c0 2.5 1.9 4.5 4.5 4.5S34 47.6 34 45c-.1-2.5-2-4.5-4.5-4.5zM45 42c1.6 0 3 1.3 3 3s-1.3 3-3 3-3-1.3-3-3 1.4-3 3-3m0-1.5c-2.5 0-4.5 1.9-4.5 4.5 0 2.5 1.9 4.5 4.5 4.5s4.5-1.9 4.5-4.5c0-2.5-2-4.5-4.5-4.5zM60.5 42c1.6 0 3 1.3 3 3s-1.3 3-3 3-3-1.3-3-3 1.4-3 3-3m0-1.5C58 40.5 56 42.4 56 45c0 2.5 1.9 4.5 4.5 4.5s4.5-2 4.5-4.5-2.1-4.5-4.5-4.5z"/>
</svg>
