<svg id="Layer_1" xmlns="http://www.w3.org/2000/svg" viewBox="0 0 90 90">
  <style>
    .st0{fill:#00aeef}.st1{fill:none;stroke:#00aeef;stroke-miterlimit:10}.st3{display:inline}
  </style>
  <path class="st0" d="M45 1.5C69 1.5 88.5 21 88.5 45S69 88.5 45 88.5 1.5 69 1.5 45 21 1.5 45 1.5M45 0C20.1 0 0 20.1 0 45s20.1 45 45 45 45-20.1 45-45S69.9 0 45 0z"/>
  <path class="st1" d="M64.6 34.3c0-.1 0-.1-.1-.3 0-.1-.1-.3-.1-.6-.2-.3-.2-.5-.3-.8l-5.7 5.7c-1.8 1.8-4.5 1.8-6.3 0-1.8-1.8-1.8-4.5 0-6.3l5.7-5.7c-.3-.1-.4-.1-.8-.3-.1 0-.4-.1-.6-.1 0 0-.1 0-.1-.1-4.4-1.4-9.1-.3-12.6 3.1-3.8 3.8-3.8 8.4-1.4 12.6l-15.4 14-.4.4c-1.1 1.1-1.7 2.6-1.7 4.1 0 3.1 2.5 5.8 5.9 5.8 1.8 0 3.4-.9 4.5-2.1L49 48.3c4.2 2.4 8.9 2.4 12.6-1.4 3.3-3.2 4.4-8.2 3-12.6z" id="_x37_42-wrench_x40_2x.png_7_"/>
</svg>
