<svg id="Layer_1" xmlns="http://www.w3.org/2000/svg" viewBox="0 0 90 90">
  <style>
    .st0{fill:#00aeef}.st1{fill:none;stroke:#00aeef;stroke-miterlimit:10}.st3{display:inline}
  </style>
  <path class="st0" d="M44.9 1.5c24 0 43.5 19.5 43.5 43.5S68.9 88.5 44.9 88.5 1.4 69 1.4 45 20.9 1.5 44.9 1.5m0-1.5C20 0-.1 20.1-.1 45s20.1 45 45 45 45-20.1 45-45-20.1-45-45-45z"/>
  <path class="st1" d="M47.8 32.1h-20c-1.6 0-2.8 1.4-2.8 2.9v19.9c0 1.6 1.3 2.9 2.8 2.9h20c1.6 0 2.9-1.4 2.9-2.9V35c-.1-1.5-1.4-2.9-2.9-2.9zm5.8 10.1v7.2L65 55.8V34.4l-11.4 7.8z" id="_x37_33-video-camera_x40_2x.png_9_"/>
</svg>
