<svg id="Layer_1" xmlns="http://www.w3.org/2000/svg" viewBox="0 0 600 126">
  <style>
    .st0{fill:#1d2638}
  </style>
  <path class="st0" d="M414.9 32.6v51.3h-10.3v-4.3c-2.7 3.2-6.5 4.8-11.6 4.8-3.5 0-6.7-.8-9.5-2.4-2.8-1.6-5.1-3.8-6.7-6.7-1.6-2.9-2.4-6.3-2.4-10.1s.8-7.2 2.4-10.1c1.6-2.9 3.8-5.1 6.7-6.7 2.8-1.6 6-2.3 9.5-2.3 4.7 0 8.5 1.5 11.1 4.5v-18h10.8zm-13.3 40.2c1.8-1.9 2.7-4.4 2.7-7.5 0-3.1-.9-5.6-2.7-7.5-1.8-1.9-4.1-2.8-6.8-2.8-2.8 0-5 .9-6.8 2.8-1.8 1.9-2.7 4.4-2.7 7.5 0 3.1.9 5.6 2.7 7.5 1.8 1.9 4.1 2.8 6.8 2.8 2.8 0 5-1 6.8-2.8zM425.4 39.8c-1.2-1.2-1.9-2.6-1.9-4.3 0-1.7.6-3.1 1.9-4.3 1.2-1.1 2.9-1.7 4.8-1.7 2 0 3.6.6 4.8 1.7 1.2 1.1 1.9 2.5 1.9 4.1 0 1.8-.6 3.3-1.9 4.5-1.2 1.2-2.9 1.8-4.8 1.8-1.9-.1-3.5-.7-4.8-1.8zm-.5 6.9h10.8v37.2h-10.8V46.7zM484 46.7v31c0 6.8-1.8 11.9-5.3 15.2-3.5 3.3-8.7 5-15.6 5-3.6 0-7-.4-10.2-1.3-3.2-.9-5.9-2.1-8-3.8l4.3-7.7c1.6 1.3 3.5 2.3 5.9 3.1 2.4.8 4.8 1.1 7.2 1.1 3.7 0 6.5-.8 8.3-2.5 1.8-1.7 2.7-4.2 2.7-7.6v-1.6c-2.8 3.1-6.7 4.6-11.8 4.6-3.4 0-6.5-.7-9.4-2.2-2.8-1.5-5.1-3.6-6.7-6.3-1.7-2.7-2.5-5.9-2.5-9.4s.8-6.7 2.5-9.4 3.9-4.8 6.7-6.3c2.8-1.5 6-2.2 9.4-2.2 5.4 0 9.5 1.8 12.3 5.3v-4.8H484zm-13.4 24c1.8-1.7 2.7-3.9 2.7-6.6 0-2.7-.9-4.9-2.7-6.6-1.8-1.7-4.2-2.5-7-2.5-2.9 0-5.2.8-7 2.5-1.8 1.7-2.8 3.9-2.8 6.6 0 2.7.9 4.9 2.8 6.6 1.8 1.7 4.2 2.5 7 2.5 2.9 0 5.2-.8 7-2.5zM530.3 68.3h-28.1c.5 2.3 1.7 4.1 3.6 5.5 1.9 1.3 4.2 2 7 2 1.9 0 3.7-.3 5.2-.9 1.5-.6 2.9-1.5 4.2-2.7l5.7 6.2c-3.5 4-8.6 6-15.3 6-4.2 0-7.9-.8-11.1-2.5-3.2-1.6-5.7-3.9-7.5-6.8-1.8-2.9-2.6-6.2-2.6-9.9 0-3.6.9-6.9 2.6-9.8 1.7-2.9 4.1-5.2 7.1-6.8 3-1.6 6.4-2.5 10.1-2.5 3.6 0 6.9.8 9.9 2.3 2.9 1.6 5.3 3.8 6.9 6.7 1.7 2.9 2.5 6.3 2.5 10.2 0 .2-.1 1.2-.2 3zM505 56.4c-1.7 1.4-2.7 3.3-3 5.7h18.3c-.4-2.4-1.4-4.2-3-5.6-1.7-1.4-3.7-2.1-6.1-2.1-2.5-.1-4.5.6-6.2 2zM541.1 83.3c-2.9-.8-5.3-1.7-7.1-2.9l3.6-7.7c1.7 1.1 3.7 1.9 6 2.6 2.3.7 4.7 1 6.9 1 4.6 0 6.8-1.1 6.8-3.4 0-1.1-.6-1.8-1.9-2.3-1.2-.5-3.2-.9-5.7-1.2-3-.5-5.6-1-7.5-1.6-2-.6-3.7-1.7-5.2-3.2-1.4-1.5-2.2-3.7-2.2-6.5 0-2.4.7-4.4 2-6.3 1.4-1.8 3.3-3.2 5.9-4.3 2.6-1 5.7-1.5 9.2-1.5 2.6 0 5.2.3 7.8.9 2.6.6 4.8 1.4 6.5 2.4l-3.6 7.7c-3.3-1.8-6.8-2.8-10.7-2.8-2.3 0-4 .3-5.2 1-1.2.6-1.7 1.5-1.7 2.5 0 1.2.6 2 1.9 2.4 1.2.5 3.2.9 5.9 1.3 3 .5 5.5 1 7.5 1.6 1.9.6 3.6 1.6 5 3.1s2.1 3.6 2.1 6.4c0 2.3-.7 4.4-2.1 6.2-1.4 1.8-3.4 3.2-6 4.2s-5.8 1.5-9.4 1.5c-2.8 0-5.8-.4-8.8-1.1zM598.3 82.1c-1.1.8-2.4 1.4-3.9 1.8-1.5.4-3.2.6-4.9.6-4.4 0-7.8-1.1-10.3-3.4-2.4-2.3-3.6-5.6-3.6-10V55.8h-5.7v-8.3h5.7v-9.1h10.8v9.1h9.3v8.3h-9.3v15.1c0 1.6.4 2.8 1.2 3.6.8.9 1.9 1.3 3.4 1.3 1.7 0 3.2-.5 4.4-1.4l2.9 7.7z"/>
  <path d="M199.6 61v7h-2.2c-.9 0-1.6.3-2 .9-.5.5-.8 1.3-.8 2.5v14c0 3.7-.9 6.5-2.7 8.3-1.9 1.9-4.6 2.8-8.1 2.8h-3.2v-6.8h1.3c1.6 0 2.8-.5 3.6-1.3.8-.9 1.1-2.2 1.1-3.9v-13c0-2.1.3-3.7.9-4.7.5-1 1.5-1.8 2.8-2.3-1.3-.5-2.3-1.2-2.8-2.3-.6-1-.9-2.6-.9-4.7v-13c0-1.7-.4-2.9-1.1-3.9-.8-.9-2-1.3-3.6-1.3h-1.3v-6.8h3.2c3.5 0 6.3.9 8.1 2.8 1.9 1.9 2.7 4.6 2.7 8.3v14.1c0 1 .3 1.9.8 2.5.4.5 1.1.8 2 .8h2.2z" fill="#00aeef"/>
  <path class="st0" d="M244.4 50.6c-2.6-3.1-6.3-4.5-11.1-4.5-3.4 0-6.5.8-9.4 2.3-2.8 1.6-5 3.8-6.6 6.7-1.6 3-2.4 6.3-2.4 10.2s.8 7.2 2.4 10.1c1.6 2.9 3.8 5.2 6.6 6.7 2.8 1.6 6 2.4 9.4 2.4 5 0 8.9-1.6 11.5-4.9v4.3H255V32.5h-10.6v18.1zm-2.5 22.2c-1.8 1.9-4.1 2.8-6.7 2.8-2.7 0-5-.9-6.8-2.8-1.8-1.8-2.6-4.4-2.6-7.5 0-3.2.9-5.7 2.6-7.6 1.8-1.8 4.1-2.8 6.8-2.8 2.6 0 4.9 1 6.7 2.8 1.7 1.9 2.6 4.4 2.6 7.6.1 3.1-.9 5.7-2.6 7.5zM333.4 46.6L322.9 72l-10.2-25.4h-10.9l15.4 37.3h11l15.5-37.3zM291.5 48.4c-2.9-1.5-6.1-2.3-9.7-2.3-3.7 0-7.1.8-10 2.4-3 1.6-5.3 3.9-7 6.9-1.8 2.9-2.6 6.2-2.6 9.9 0 3.6.9 7 2.6 9.9 1.7 2.9 4.2 5.2 7.4 6.8 3.2 1.6 6.8 2.5 11 2.5 6.7 0 11.7-2 15.2-6l-5.7-6.2c-1.3 1.2-2.6 2.1-4.2 2.7-1.5.6-3.2.9-5.1.9-2.7 0-5.1-.6-7-1.9-1.8-1.3-3-3.2-3.5-5.6h27.8c.1-1.7.2-2.7.2-2.9 0-3.8-.9-7.3-2.5-10.2-1.7-3-4-5.2-6.9-6.9zM272.6 62c.4-2.4 1.4-4.3 3-5.7 1.7-1.4 3.7-2.1 6-2.1 2.5 0 4.4.7 6 2.1 1.6 1.4 2.6 3.3 3 5.7h-18z"/>
  <path class="st0" d="M48.7 46.1c-2.7 0-5.3.5-7.6 1.5-2.3 1.1-4.3 2.6-5.7 4.5-1.3-2-3-3.5-5.1-4.5-2.1-1.1-4.4-1.5-7-1.5-2.4 0-4.5.4-6.5 1.2-2 .8-3.7 2-5 3.5v-4.3H1.7v37.3h10.7V65.2c0-3.3.7-5.7 2.2-7.3 1.4-1.6 3.4-2.5 5.9-2.5 4.6 0 7 3 7 8.8v19.7H38V65.2c0-3.3.8-5.7 2.2-7.3 1.5-1.6 3.5-2.5 6-2.5 2.3 0 4 .8 5.2 2.2 1.2 1.4 1.8 3.6 1.8 6.6v19.7h10.7V62.6c0-5.6-1.4-9.7-4.1-12.4-2.9-2.7-6.5-4.1-11.1-4.1zM104.3 48.5c-2.7-1.6-5.9-2.4-9.3-2.4-4.7 0-8.4 1.4-11.2 4.5V32.5H73.3v51.4h10.1v-4.3c2.6 3.3 6.5 4.9 11.6 4.9 3.4 0 6.5-.9 9.3-2.4 2.8-1.6 5-3.8 6.6-6.7 1.6-2.9 2.4-6.2 2.4-10.1s-.8-7.2-2.4-10.1c-1.6-2.9-3.8-5.1-6.6-6.7zm-4.4 24.3c-1.7 1.9-4 2.8-6.7 2.8s-5-.9-6.7-2.8c-1.8-1.8-2.6-4.4-2.6-7.5 0-3.2.9-5.7 2.6-7.6 1.7-1.8 4-2.8 6.7-2.8s5 1 6.7 2.8c1.8 1.9 2.6 4.4 2.6 7.6 0 3.1-.9 5.7-2.6 7.5zM160.1 75.9c-1.5 0-2.6-.4-3.4-1.2-.9-.9-1.2-2.1-1.2-3.6V55.8h9.2v-8.3h-9.2v-9.1h-10.6v9.1h-5.7v8.3h5.7v15.3c0 4.4 1.1 7.8 3.5 10 2.5 2.3 5.9 3.5 10.2 3.5 1.7 0 3.3-.2 4.8-.6 1.5-.4 2.7-1.1 3.9-1.8l-2.9-7.6c-1.1.8-2.6 1.3-4.3 1.3zM120.4 32.5h10.7v51.4h-10.7z"/>
</svg>
